<svg id="evXs8MEAtna1" xmlns="http://www.w3.org/2000/svg" xmlns:xlink="http://www.w3.org/1999/xlink" viewBox="0 0 86.1 86.31" shape-rendering="geometricPrecision" text-rendering="geometricPrecision"><style><![CDATA[#evXs8MEAtna5_tr {animation: evXs8MEAtna5_tr__tr 5000ms linear infinite normal forwards}@keyframes evXs8MEAtna5_tr__tr { 0% {transform: translate(34.245575px,52.824858px) rotate(0deg)} 100% {transform: translate(34.245575px,52.824858px) rotate(720deg)}} #evXs8MEAtna20_tr {animation: evXs8MEAtna20_tr__tr 5000ms linear infinite normal forwards}@keyframes evXs8MEAtna20_tr__tr { 0% {transform: translate(57.190434px,52.818666px) rotate(0deg)} 100% {transform: translate(57.190434px,52.818666px) rotate(720deg)}} #evXs8MEAtna35_to {animation: evXs8MEAtna35_to__to 5000ms linear infinite normal forwards}@keyframes evXs8MEAtna35_to__to { 0% {transform: translate(42.985003px,46.735899px)} 14% {transform: translate(42.985003px,46.735899px)} 74% {transform: translate(39.515004px,41.35px)} 100% {transform: translate(39.515004px,41.35px)}} #evXs8MEAtna35 {animation: evXs8MEAtna35_c_o 5000ms linear infinite normal forwards}@keyframes evXs8MEAtna35_c_o { 0% {opacity: 1} 14% {opacity: 1} 100% {opacity: 0}} #evXs8MEAtna37_to {animation: evXs8MEAtna37_to__to 5000ms linear infinite normal forwards}@keyframes evXs8MEAtna37_to__to { 0% {transform: translate(41.53501px,41.970003px)} 60% {transform: translate(37.94001px,33.156582px)} 100% {transform: translate(37.94001px,33.156582px)}} #evXs8MEAtna37 {animation: evXs8MEAtna37_c_o 5000ms linear infinite normal forwards}@keyframes evXs8MEAtna37_c_o { 0% {opacity: 1} 60% {opacity: 0} 100% {opacity: 0}} #evXs8MEAtna39_to {animation: evXs8MEAtna39_to__to 5000ms linear infinite normal forwards}@keyframes evXs8MEAtna39_to__to { 0% {transform: translate(44.569996px,51.069998px)} 42% {transform: translate(44.569996px,51.069998px)} 100% {transform: translate(39.789339px,42.065634px)}} #evXs8MEAtna39 {animation: evXs8MEAtna39_c_o 5000ms linear infinite normal forwards}@keyframes evXs8MEAtna39_c_o { 0% {opacity: 1} 42% {opacity: 1} 100% {opacity: 0.25641}}]]></style><g clip-rule="evenodd"><rect width="86.1" height="86.31" rx="0" ry="0" clip-rule="evenodd" fill="none" fill-rule="evenodd"/><path d="M36.28,43.64c-.21.05-.23.08-.26.34-.01.09-.03.18-.04.2-.02.03-.28.15-.59.27-2.19.86-3.82,1.53-4.54,1.87-.46.22-.63.26-1.19.3-.24.01-.48.04-.54.05-.28.09-1.02.17-1.75.18l-.33.01-.13.22c-.14.22-.14.23-.08.29.09.1.09.21.01.5-.09.28-.1.5-.05,1.05.01.19.01.25-.02.25-.08,0-.24.15-.31.32-.14.3-.21.97-.14,1.32.04.17.04.18.01.45-.01.15.05.68.08.69c0,.01.08.06.17.12.21.14.35.29.38.4.04.23.47.44,1,.52.3.04,2.75.27,3.08.29l.09.01.02-.46c.02-.65.14-1.11.41-1.58.8-1.36,2.6-1.91,3.98-1.22.89.46,1.5,1.21,1.69,2.11.07.3.09,1.03.04,1.47l-.02.23h8.5c8.09,0,8.5,0,8.48-.05-.09-.25-.15-.92-.12-1.31.08-.9.5-1.6,1.3-2.15c1.13-.77,2.4-.8,3.52-.07.68.45,1.12,1.11,1.3,1.95.05.24.04.97-.01,1.22-.03.11-.04.2-.04.21.02.02,1.1-.06,1.36-.1.51-.08.71-.19.86-.43.07-.12.08-.16.08-.36c0-.13-.03-.33-.06-.46-.05-.23-.05-.25,0-.54.08-.57.11-.87.11-1.41c0-.5,0-.55-.06-.74-.13-.38-.3-.53-.81-.77-.62-.3-1.79-.63-3.3-.94-1.49-.3-4.32-.59-5.82-.59h-.65l-.67-.4c-2.3-1.35-4.51-2.5-5.25-2.73-1.41-.45-4.52-.56-8.19-.29l-.53.04-.13-.08c-.26-.17-.63-.26-.84-.2v0Zm3.2,7.26h.32c.22,0,.39.05.52.14s.2.2.2.34c0,.17-.1.32-.29.43.3.1.45.28.45.53c0,.17-.08.32-.23.42-.16.11-.37.16-.63.16h-.34v-2.02Zm.28.24v.6c.15,0,.27-.03.35-.09.08-.05.12-.13.12-.23c0-.08-.04-.15-.11-.2s-.17-.08-.29-.08c-.03,0-.05,0-.07,0Zm0,.84v.7h.02c.24,0,.4-.04.48-.12.09-.08.13-.15.13-.23c0-.11-.05-.19-.14-.25-.1-.07-.23-.1-.4-.1h-.09Zm1.35-1.08h.44c.22,0,.4.05.53.16.14.11.21.25.21.42c0,.13-.04.25-.13.36-.09.1-.23.17-.42.22l.59.86h-.32l-.56-.83h-.06v.83h-.28v-2.02Zm.28.24v.71c.41.01.61-.11.61-.36c0-.08-.02-.15-.07-.21-.05-.05-.11-.09-.19-.11s-.2-.03-.35-.03Zm2.06-.32l.96,2.1h-.29l-.24-.51h-.86l-.23.51h-.29l.95-2.1Zm0,.64l-.32.71h.65l-.33-.71Zm1.19-.64l1.5,1.53v-1.45h.28v2.12l-1.5-1.53v1.43h-.28v-2.1Zm2.19.08h.49c.39,0,.68.1.87.31.19.2.29.44.29.7c0,.27-.1.5-.3.71-.19.2-.48.3-.85.3h-.5v-2.02Zm.28.27v1.48h.02c.2,0,.36-.01.46-.03s.2-.06.29-.12c.1-.07.17-.15.22-.25.06-.1.09-.22.09-.34c0-.16-.05-.3-.13-.42-.09-.13-.2-.21-.32-.26-.12-.04-.28-.06-.49-.06h-.14Zm2.92-.05l-.22.18c-.06-.06-.11-.1-.16-.13s-.12-.05-.21-.05c-.1,0-.18.02-.24.07-.06.04-.1.1-.1.17c0,.06.03.12.09.16.05.05.14.1.27.16.13.05.23.1.3.15.08.05.14.1.18.16.05.06.08.12.11.19.02.06.03.13.03.2c0,.17-.06.31-.18.43-.13.12-.27.18-.45.18-.17,0-.32-.05-.45-.14s-.23-.23-.3-.42l.28-.08c.1.23.25.34.46.34.1,0,.19-.02.25-.08.07-.06.1-.14.1-.23c0-.06-.02-.11-.05-.17-.04-.05-.08-.1-.13-.13-.05-.04-.13-.08-.25-.13-.11-.04-.2-.09-.26-.13-.06-.03-.11-.08-.16-.13-.04-.06-.07-.11-.09-.16-.02-.06-.03-.11-.03-.17c0-.15.05-.27.17-.37.12-.11.26-.16.42-.16.11,0,.23.03.34.08.11.04.21.12.28.21Zm-9.66-1.93h.25v1.14h-.25v-.22c-.11.17-.26.26-.43.26-.15,0-.28-.06-.39-.18s-.16-.26-.16-.43c0-.16.05-.3.16-.42s.24-.18.38-.18c.09,0,.18.02.26.07s.14.11.18.19v-.23Zm.04.57c0-.1-.04-.19-.11-.26-.08-.08-.17-.12-.27-.12-.11,0-.2.04-.27.12-.08.07-.12.16-.12.26s.04.2.11.27c.08.08.17.12.28.12.1,0,.19-.04.27-.12.07-.07.11-.16.11-.27Zm1.35-.62l.32.76.34-.71h.21l-.56,1.18-.31-.74-.31.73-.56-1.17h.21l.34.71.32-.76Zm2.19.67h-.97c.02.11.07.2.14.26.08.05.16.08.25.08.14,0,.25-.06.34-.17l.18.13c-.13.17-.31.26-.53.26-.17,0-.31-.06-.43-.18-.11-.12-.17-.26-.17-.43s.06-.31.17-.42c.12-.12.26-.18.43-.18.16,0,.3.06.42.18s.18.27.17.47Zm-.95-.2h.7c-.07-.15-.19-.23-.34-.23-.17,0-.28.08-.36.23Zm1.92-.28l-.16.14c-.04-.03-.08-.06-.11-.07-.03-.02-.06-.02-.11-.02-.09,0-.14.03-.14.1c0,.06.06.11.18.15.13.05.22.11.27.16.06.06.08.13.08.22s-.04.18-.11.25c-.08.07-.18.11-.28.11-.16,0-.3-.08-.4-.23l.19-.09c.07.07.14.1.21.1.05,0,.09-.02.13-.04.04-.03.06-.06.06-.1c0-.06-.07-.12-.2-.17s-.22-.11-.27-.16-.08-.11-.08-.19c0-.1.04-.17.11-.24.07-.06.16-.09.27-.09s.23.05.36.17Zm.19.43c0-.16.06-.3.19-.42.12-.12.26-.18.42-.18.17,0,.31.06.43.18.13.12.19.26.19.42s-.06.3-.18.42c-.12.13-.26.19-.42.19-.17,0-.32-.06-.44-.18-.13-.13-.19-.27-.19-.43Zm.99,0c0-.1-.03-.18-.11-.26-.07-.07-.16-.1-.26-.1s-.19.03-.27.11c-.08.07-.11.16-.11.26c0,.09.04.18.11.25.08.07.17.11.27.11s.19-.04.26-.11c.08-.08.11-.16.11-.26Zm.47.57v-1.14h.24v.17c.06-.07.11-.12.16-.15.06-.04.11-.05.18-.05.09,0,.15.02.2.05.05.04.09.1.13.19.06-.09.12-.15.17-.19.06-.03.12-.05.2-.05.09,0,.17.03.23.1.07.07.1.15.1.24v.83h-.24v-.77c0-.13-.06-.19-.19-.19-.07,0-.13.03-.18.1-.05.06-.07.14-.07.24v.62h-.24v-.74c0-.15-.06-.22-.19-.22-.07,0-.13.03-.18.09s-.08.14-.08.23v.64h-.24Zm3.06-.52h-.98c.02.11.07.2.15.26.07.05.15.08.24.08.14,0,.25-.06.35-.17l.17.13c-.13.17-.31.26-.53.26-.17,0-.31-.06-.42-.18-.12-.12-.18-.26-.18-.43s.06-.31.18-.42c.11-.12.25-.18.42-.18s.31.06.42.18c.12.12.18.27.18.47Zm-.95-.2h.7c-.08-.15-.19-.23-.35-.23s-.28.08-.35.23Zm-6.99-5.09c.04.13.17.86.25,1.46.09.64.21,1.53.2,1.53-.02.02-4.73-.11-5.82-.16-1.01-.05-1.31-.16-1.62-.61-.18-.26-.25-.64-.17-.92.04-.12.16-.21.55-.42c1.04-.56,2.26-.82,4.58-.97.7-.04.82-.04,1.45-.04h.54l.04.13v0Zm1.84-.03c1.08.1,2.03.24,2.65.4.59.14,1.27.46,2.04.94.39.24,1.07.73,1.07.76c0,.02-.04.03-.09.03-.13,0-.32.1-.4.22-.06.11-.08.32-.04.53l.03.12h-2.56-2.56l-.5-1.53-.5-1.53h.13c.08,0,.4.03.73.06Z" clip-rule="evenodd" fill="#fff"/><g id="evXs8MEAtna5_tr" transform="translate(34.245575,52.824858) rotate(0)"><g transform="translate(-34.245575,-52.824858)" clip-rule="evenodd"><path d="M33.7,49.92c-1.22.23-2.19,1.24-2.37,2.47-.05.34-.02.83.07,1.17.32,1.23,1.41,2.12,2.68,2.2c1.44.08,2.72-.89,3.05-2.31.08-.33.07-.98-.01-1.32-.27-1.07-1.09-1.9-2.16-2.17-.29-.08-.95-.1-1.26-.04v0Zm1.07.87c.24.06.6.24.8.41.33.26.59.68.71,1.11.06.25.07.74,0,1.01-.17.67-.69,1.24-1.34,1.47-1.51.52-3.04-.79-2.75-2.35.09-.43.27-.78.59-1.09.31-.32.67-.51,1.09-.59.24-.04.66-.03.9.03v0Z" clip-rule="evenodd" fill="#fff"/><path d="M34.56,51.49c0,.26.02.48.03.49.05.05.31-.16.57-.47l.14-.16-.13-.09c-.15-.09-.37-.18-.53-.21l-.09-.02.01.46v0Z" clip-rule="evenodd" fill="#fff"/><path d="M33.63,51.12c-.18.06-.47.23-.46.27c0,.03.67.61.7.61.02,0,.04-.02.05-.05.02-.05.02-.36,0-.65-.02-.27-.02-.28-.29-.18v0Z" clip-rule="evenodd" fill="#fff"/><path d="M35.38,52.1c-.16.18-.3.35-.3.37-.02.07.13.1.44.08.17-.01.34-.02.4-.03.09-.02.09-.02.07-.12-.02-.12-.18-.47-.26-.57l-.05-.07-.3.34v0Z" clip-rule="evenodd" fill="#fff"/><path d="M32.69,51.94c-.09.13-.19.38-.22.53l-.01.09h.44c.46,0,.57-.02.51-.12-.04-.07-.58-.61-.61-.61-.01,0-.06.05-.11.11v0Z" clip-rule="evenodd" fill="#fff"/><path d="M34.18,52.1c-.1.1,0,.25.13.18.07-.04.07-.16,0-.2-.07-.03-.08-.03-.13.02v0Z" clip-rule="evenodd" fill="#fff"/><path d="M34.08,52.58c-.16.09-.19.31-.06.44.12.12.29.12.41,0c.11-.12.11-.28-.01-.4-.09-.09-.22-.11-.34-.04Z" clip-rule="evenodd" fill="#fff"/><path d="M33.54,52.72c-.05.06-.02.17.05.18.13.02.19-.09.1-.18-.05-.05-.1-.05-.15,0Z" clip-rule="evenodd" fill="#fff"/><path d="M34.79,52.75c-.07.06-.08.1,0,.17.07.06.17.01.17-.09c0-.09-.09-.14-.17-.08v0Z" clip-rule="evenodd" fill="#fff"/><path d="M32.65,53.12c-.22.02-.22.02-.17.19.05.15.18.41.26.52l.05.07.3-.35c.16-.19.29-.36.29-.39.01-.04-.04-.04-.29-.05-.17,0-.36.01-.44.01v0Z" clip-rule="evenodd" fill="#fff"/><path d="M35.26,53.16c-.13.01-.18.02-.18.06-.01.04.59.65.64.65.07,0,.25-.4.3-.65l.02-.09-.31.01c-.17,0-.38.01-.47.02v0Z" clip-rule="evenodd" fill="#fff"/><path d="M34.15,53.35c-.05.05-.05.05-.01.12.01.03.06.06.1.06.05,0,.12-.07.12-.13c0-.03-.09-.1-.12-.1-.02,0-.06.02-.09.05v0Z" clip-rule="evenodd" fill="#fff"/><path d="M33.62,53.83c-.24.26-.39.43-.39.46c0,.07.51.29.67.29h.08l-.02-.41c-.03-.47-.04-.53-.1-.53-.03,0-.13.09-.24.19v0Z" clip-rule="evenodd" fill="#fff"/><path d="M34.61,53.67c-.02.02-.07.47-.09.73c0,.17,0,.18.06.18.22,0,.74-.2.7-.26-.01-.02-.15-.19-.3-.36-.27-.3-.34-.35-.37-.29Z" clip-rule="evenodd" fill="#fff"/></g></g><g id="evXs8MEAtna20_tr" transform="translate(57.190434,52.818666) rotate(0)"><g transform="translate(-57.190434,-52.818666)" clip-rule="evenodd"><path d="M56.67,49.92c-.91.16-1.7.75-2.11,1.57-.63,1.25-.28,2.82.82,3.65.32.23.53.35.88.47.78.25,1.54.2,2.27-.18c1.57-.79,2.08-2.78,1.11-4.25-.64-.96-1.84-1.47-2.97-1.26v0Zm1.09.89c.98.28,1.64,1.25,1.5,2.25-.19,1.44-1.69,2.26-2.99,1.63-.67-.33-1.12-1-1.16-1.76-.06-.95.54-1.81,1.46-2.11.34-.11.82-.12,1.19-.01Z" clip-rule="evenodd" fill="#fff"/><path d="M57.5,51.49c.01.26.02.48.04.49.03.04.15-.05.44-.34l.27-.28-.07-.05c-.14-.11-.53-.28-.67-.28-.02,0-.03.1-.01.46v0Z" clip-rule="evenodd" fill="#fff"/><path d="M56.61,51.1c-.14.05-.37.17-.46.24l-.06.05.34.3c.19.17.36.31.38.31.07,0,.08-.11.06-.53-.02-.46-.01-.44-.26-.37Z" clip-rule="evenodd" fill="#fff"/><path d="M58.32,52.1c-.17.18-.3.36-.3.39s.03.05.1.06c.13.02.79-.02.82-.05.05-.05-.14-.52-.26-.67l-.06-.07-.3.34v0Z" clip-rule="evenodd" fill="#fff"/><path d="M55.64,51.93c-.11.18-.2.38-.22.52l-.02.11h.43c.25,0,.46-.01.49-.02.05-.03.05-.04.01-.11-.02-.04-.16-.2-.32-.36l-.28-.28-.09.14v0Z" clip-rule="evenodd" fill="#fff"/><path d="M57.13,52.09c-.07.04-.06.15.01.19.12.07.22-.08.12-.18-.05-.05-.06-.05-.13-.01Z" clip-rule="evenodd" fill="#fff"/><path d="M57.03,52.57c-.14.09-.19.29-.1.42.02.03.09.08.14.1.08.04.11.04.19,0c.28-.11.24-.51-.05-.54-.07-.01-.14,0-.18.02v0Z" clip-rule="evenodd" fill="#fff"/><path d="M56.49,52.72c-.06.06-.03.17.05.18.12.02.19-.09.1-.18-.05-.05-.11-.05-.15,0Z" clip-rule="evenodd" fill="#fff"/><path d="M57.72,52.75c-.02.02-.04.06-.04.08c0,.04.07.13.1.13.06,0,.12-.07.12-.13c0-.04-.02-.08-.05-.1-.07-.03-.08-.03-.13.02v0Z" clip-rule="evenodd" fill="#fff"/><path d="M55.57,53.13c-.17.02-.17.02-.17.1.03.2.3.7.35.65.16-.17.6-.71.59-.73-.01-.04-.5-.05-.77-.02Z" clip-rule="evenodd" fill="#fff"/><path d="M58.21,53.15c-.2.01-.23.05-.14.17.07.09.57.55.6.55.01,0,.05-.07.1-.15.08-.14.15-.32.19-.51l.02-.08-.3.01c-.17,0-.38.01-.47.01v0Z" clip-rule="evenodd" fill="#fff"/><path d="M57.08,53.36c-.04.09.01.17.11.16.06,0,.08-.02.08-.09.02-.13-.13-.18-.19-.07Z" clip-rule="evenodd" fill="#fff"/><path d="M56.46,53.94c-.16.17-.28.32-.28.34c0,.08.48.3.67.3h.07l-.02-.35c-.03-.51-.04-.59-.1-.59-.03,0-.18.14-.34.3v0Z" clip-rule="evenodd" fill="#fff"/><path d="M57.55,53.67c-.02.03-.07.4-.08.68-.01.22-.01.23.05.23.13,0,.37-.07.55-.15l.18-.08-.06-.07c-.18-.23-.56-.64-.59-.64-.02,0-.04.01-.05.03v0Z" clip-rule="evenodd" fill="#fff"/></g></g><g id="evXs8MEAtna35_to" transform="translate(42.985003,46.735899)"><g id="evXs8MEAtna35" transform="translate(-42.985003,-46.735899)" clip-rule="evenodd"><path d="M38.74,28.52c19.95-4.65,38.03-.26,40.37,9.8C81.46,48.37,67.18,60.3,47.23,64.95s-38.03.27-40.37-9.79C4.51,45.1,18.79,33.18,38.74,28.52Z" clip-rule="evenodd" fill="none" stroke="#ed1758" stroke-width="0.06" stroke-miterlimit="22.9256"/></g></g><g id="evXs8MEAtna37_to" transform="translate(41.53501,41.970003)"><g id="evXs8MEAtna37" transform="translate(-41.53501,-41.970003)" clip-rule="evenodd"><path d="M37.35,24.03c-.15.04-.3-.06-.33-.21-.04-.15.05-.3.2-.34l.13.55Zm.42-.67l.13.55-.55.12-.13-.55.55-.12Zm0,0c.15-.03.3.06.33.22.04.15-.05.3-.2.33l-.13-.55Zm2.85-.01c-.15.03-.29-.07-.33-.22-.03-.15.07-.3.22-.33l.11.55Zm.45-.65l.1.55-.12.02-.43.08-.11-.55.44-.09.12-.01Zm0,0c.15-.03.29.07.32.22.03.16-.07.3-.22.33l-.1-.55Zm2.85.12c-.15.02-.3-.08-.32-.24-.02-.15.08-.29.23-.32l.09.56Zm.47-.64l.08.56-.55.08-.09-.56.56-.08Zm0,0c.15-.02.29.09.31.24.03.15-.08.3-.23.32l-.08-.56Zm2.84.26c-.15.02-.29-.1-.3-.25-.02-.16.09-.29.25-.31l.05.56Zm.5-.61l.06.56-.56.05-.05-.56.55-.05Zm0,0c.16-.01.29.1.31.26.01.15-.1.29-.25.3l-.06-.56Zm2.83.4c-.15.01-.28-.11-.29-.27-.01-.15.11-.28.26-.29l.03.56Zm.53-.58l.03.56-.56.02-.03-.56.56-.02Zm0,0c.16-.01.29.11.3.27c0,.15-.12.28-.27.29l-.03-.56Zm2.81.55c-.16,0-.28-.13-.28-.29c0-.15.13-.28.28-.28v.57Zm.56-.55v.56l-.56-.01v-.57l.56.02Zm0,0c.15,0,.28.13.28.28c0,.16-.13.28-.28.28v-.56Zm2.77.71c-.15-.01-.27-.14-.26-.3.01-.15.14-.27.3-.26l-.04.56Zm.59-.51l-.03.56-.56-.05.04-.56.55.05Zm0,0c.16.01.27.14.26.3-.01.15-.14.27-.29.26l.03-.56Zm2.72.89c-.15-.02-.26-.16-.24-.31.02-.16.16-.27.31-.25l-.07.56Zm.63-.47l-.07.55-.56-.08.07-.56.56.09Zm0,0c.15.02.26.16.24.31-.02.16-.16.26-.31.24l.07-.55Zm2.65,1.1c-.15-.03-.25-.18-.22-.33.03-.16.18-.25.33-.22l-.11.55Zm.66-.42l-.13.55-.34-.09-.19-.04.11-.55.21.04.34.09Zm0,0c.15.04.24.19.21.34-.04.15-.19.25-.34.21l.13-.55Zm2.53,1.34c-.15-.05-.23-.2-.18-.35s.21-.23.35-.18l-.17.53Zm.7-.34l-.17.53-.53-.19.17-.53.53.19Zm0,0c.15.04.23.2.18.35s-.2.23-.35.18l.17-.53Zm2.38,1.62c-.14-.06-.21-.23-.15-.37s.23-.21.37-.15l-.22.52Zm.73-.25l-.25.51-.47-.25-.01-.01.22-.52.04.02.47.25Zm0,0c.14.07.19.24.12.38-.06.14-.23.2-.37.13l.25-.51Zm2.1,1.97c-.13-.08-.17-.26-.08-.39.08-.13.25-.17.38-.08l-.3.47Zm.76-.12l-.33.46-.35-.28-.08-.06.3-.47.11.08.35.27Zm0,0c.12.1.15.27.06.4-.09.12-.27.15-.39.06l.33-.46Zm1.64,2.36c-.1-.12-.09-.3.03-.4.11-.1.29-.08.39.04l-.42.36Zm.76.08l-.42.37-.34-.45.42-.36.34.44Zm0,0c.1.12.09.3-.03.4-.11.1-.29.08-.39-.03l.42-.37Zm.91,2.75c-.07-.15-.01-.31.13-.38.14-.06.31,0,.38.14l-.51.24Zm.71.32l-.53.18-.04-.15-.14-.35.51-.24.16.41.04.15Zm0,0c.05.14-.03.3-.17.35-.15.05-.31-.03-.36-.17l.53-.18Zm-.07,2.86c-.01-.16.11-.29.27-.29.15,0,.28.12.28.27l-.55.02Zm.54.55l-.55.01.01-.56.55-.02-.01.57Zm0,0c.01.15-.11.28-.27.29-.15,0-.28-.12-.28-.28l.55-.01Zm-1,2.7c.04-.15.19-.24.34-.2s.24.19.2.34l-.54-.14Zm.37.7l-.53-.18.02-.06.14-.46.54.14-.15.5-.02.06Zm0,0c-.05.15-.21.22-.35.17-.15-.05-.23-.21-.18-.35l.53.18Zm-1.67,2.33c.07-.14.24-.19.37-.12.14.07.2.24.13.38l-.5-.26Zm.21.76l-.48-.29.1-.16.17-.31.5.26-.19.34-.1.16Zm0,0c-.08.13-.25.18-.39.1-.13-.08-.17-.26-.09-.39l.48.29ZM74,44.55c.09-.12.27-.15.39-.05.12.09.15.27.05.39L74,44.55Zm.09.78l-.44-.34.35-.44.44.34-.35.44Zm0,0c-.09.12-.27.15-.39.05-.12-.09-.14-.27-.05-.39l.44.34ZM71.76,47c.11-.11.29-.11.4,0c.1.12.1.29-.01.4l-.39-.4Zm-.01.79l-.4-.41.41-.38.39.4-.4.39Zm0,0c-.11.1-.29.1-.4-.01s-.11-.29,0-.4l.4.41ZM69.26,49.2c.11-.1.29-.09.39.03s.08.3-.04.4l-.35-.43Zm-.08.78l-.36-.43.44-.35.35.43-.43.35Zm0,0c-.12.1-.3.08-.4-.04s-.08-.3.04-.39l.36.43Zm-2.61,1.19c.12-.09.3-.06.39.07.09.12.06.3-.07.39l-.32-.46Zm-.15.77l-.31-.47.28-.18.18-.12.32.46-.19.13-.28.18Zm0,0c-.13.09-.3.05-.39-.08-.08-.13-.05-.3.08-.39l.31.47Zm-2.67,1c.13-.08.31-.03.38.1.08.14.04.31-.1.39l-.28-.49Zm-.21.76l-.28-.49.49-.27.28.49-.49.27Zm0,0c-.13.08-.3.03-.38-.11-.07-.13-.03-.3.1-.38l.28.49Zm-2.72.82c.13-.07.3-.01.37.13s.02.31-.12.38l-.25-.51Zm-.25.75l-.26-.5.51-.25.25.51-.5.24Zm0,0c-.14.07-.31.01-.38-.13-.07-.13-.01-.3.12-.37l.26.5Zm-2.78.67c.15-.06.31,0,.37.14.06.15,0,.31-.14.37l-.23-.51Zm-.29.73l-.22-.52.51-.21.23.51-.52.22Zm0,0c-.14.06-.3,0-.36-.15-.07-.14,0-.3.14-.37l.22.52Zm-2.8.52c.14-.06.3.01.36.16.06.14-.01.31-.15.37l-.21-.53Zm-.33.72l-.19-.53.39-.14.13-.05.21.53-.14.05-.4.14Zm0,0c-.14.05-.3-.02-.36-.17-.05-.14.02-.3.17-.36l.19.53Zm-2.83.38c.15-.05.31.03.36.17.05.15-.03.31-.17.36l-.19-.53Zm-.35.71l-.17-.54.13-.04.39-.13.19.53-.42.14-.12.04Zm0,0c-.15.04-.31-.04-.35-.19-.05-.15.03-.3.18-.35l.17.54Zm-2.84.24c.14-.05.3.04.34.19s-.04.31-.19.35l-.15-.54Zm-.39.69l-.15-.55.54-.14.15.54-.54.15Zm0,0c-.15.04-.3-.05-.34-.2-.05-.15.04-.3.19-.35l.15.55Zm-2.85.11c.15-.03.3.06.33.21.04.15-.05.3-.2.34l-.13-.55Zm-.42.67l-.13-.55.55-.12.13.55-.55.12Zm0,0c-.15.03-.3-.06-.34-.21-.03-.15.06-.3.21-.34l.13.55Zm-2.85-.01c.15-.03.29.08.32.23s-.07.3-.22.32l-.1-.55Zm-.45.65l-.1-.56.55-.09.1.55-.55.1Zm0,0c-.16.02-.3-.08-.33-.23s.07-.3.23-.33l.1.56Zm-2.86-.14c.15-.03.3.08.32.23.03.16-.08.3-.23.32l-.09-.55Zm-.47.62l-.07-.56.38-.04.16-.02.09.55-.17.03-.39.04Zm0,0c-.16.02-.3-.09-.32-.24-.02-.16.09-.3.25-.32l.07.56Zm-2.85-.28c.16-.01.29.1.31.25.02.16-.1.3-.25.31l-.06-.56Zm-.5.61l-.05-.56.16-.01.39-.04.06.56-.41.04-.15.01Zm0,0c-.16.01-.29-.11-.3-.26-.01-.16.1-.29.25-.3l.05.56Zm-2.83-.43c.16-.01.29.11.3.27c0,.15-.12.29-.27.29l-.03-.56Zm-.54.58l-.01-.56h.04l.51-.02.03.56-.52.02h-.05Zm0,0c-.15,0-.28-.12-.28-.28-.01-.15.12-.28.27-.28l.01.56Zm-2.79-.58c.15,0,.27.13.27.28c0,.16-.12.28-.28.28l.01-.56Zm-.57.55l.02-.57.05.01.5.01-.01.56-.51-.01h-.05Zm0,0c-.16-.01-.28-.14-.27-.3c0-.15.13-.27.29-.27l-.02.57Zm-2.76-.75c.15.01.27.14.26.3-.01.15-.15.27-.3.26l.04-.56Zm-.6.51l.05-.56.21.02.34.03-.04.56-.35-.03-.21-.02Zm0,0c-.16-.02-.27-.16-.26-.31.02-.16.15-.27.31-.25l-.05.56Zm-2.71-.93c.15.02.26.16.24.31-.02.16-.16.27-.31.25l.07-.56Zm-.63.45l.09-.55.5.09.04.01-.07.56-.06-.01-.5-.1Zm0,0c-.16-.02-.26-.17-.23-.32.02-.15.16-.26.32-.23l-.09.55Zm-2.63-1.14c.15.04.25.19.21.34s-.19.25-.34.21l.13-.55Zm-.67.41l.13-.55.54.14-.13.55-.54-.14Zm0,0c-.15-.04-.24-.19-.2-.34.03-.15.18-.25.33-.21l-.13.55Zm-2.51-1.39c.14.05.23.21.18.35-.05.15-.21.23-.35.18l.17-.53Zm-.71.33l.2-.53.26.11.25.09-.17.53-.28-.09-.26-.11Zm0,0c-.14-.05-.22-.22-.16-.36.05-.15.21-.22.36-.17l-.2.53Zm-2.32-1.68c.14.06.19.23.13.37-.07.14-.24.2-.38.13l.25-.5Zm-.74.24l.25-.51.49.27-.25.5-.49-.26Zm0,0c-.14-.07-.2-.24-.13-.38s.24-.2.38-.13l-.25.51ZM9.67,56.28c.12.09.15.27.06.39s-.27.15-.39.06l.33-.45Zm-.77.09l.33-.45.44.36-.33.45-.44-.36Zm0,0c-.12-.09-.15-.26-.06-.39.09-.12.27-.15.39-.06l-.33.45ZM7.37,53.92c.1.11.08.29-.03.39-.12.1-.3.09-.4-.03l.43-.36ZM6.6,53.8l.46-.32.16.25.15.19-.43.36-.17-.23-.17-.25Zm0,0c-.08-.13-.06-.3.07-.39s.3-.06.39.07l-.46.32Zm-.72-2.78c.05.15-.03.31-.18.36-.14.05-.3-.03-.35-.18l.53-.18Zm-.69-.36l.53-.18.16.54-.53.18-.16-.54Zm0,0c-.05-.14.03-.3.18-.35.14-.05.3.02.35.17l-.53.18Zm.26-2.88c0,.15-.12.28-.27.29-.16,0-.28-.12-.29-.28l.56-.01Zm-.52-.58l.56.04-.04.3v.24l-.56.01.01-.29.03-.3Zm0,0c.01-.15.14-.27.3-.26.15.01.27.15.26.3l-.56-.04Zm1.14-2.62c-.05.14-.2.22-.35.17s-.23-.21-.18-.36l.53.19Zm-.33-.71l.53.18-.2.53-.53-.19.2-.52Zm0,0c.05-.15.21-.23.36-.18.14.05.22.21.17.36l-.53-.18ZM7.5,41.6c-.08.13-.25.18-.38.1s-.18-.26-.1-.39l.48.29Zm-.18-.76l.48.28-.3.48-.48-.29.3-.47Zm0,0c.08-.14.25-.18.38-.1.14.08.18.25.1.38l-.48-.28Zm2.13-1.92c-.1.12-.28.13-.4.03s-.13-.28-.03-.4l.43.37Zm-.06-.79l.43.37-.37.42-.43-.37.37-.42Zm0,0c.1-.12.28-.13.39-.03.12.1.14.28.04.4l-.43-.37Zm2.36-1.61c-.11.1-.28.1-.39-.01s-.11-.29,0-.4l.39.41Zm.03-.8l.37.42-.03.03-.37.35-.39-.41.39-.36.03-.03Zm0,0c.11-.1.29-.09.39.02.11.12.1.3-.02.4l-.37-.42Zm2.5-1.36c-.12.1-.29.07-.39-.05-.09-.12-.07-.3.05-.39l.34.44Zm.11-.78l.34.45-.45.33-.34-.44.45-.34Zm0,0c.12-.09.3-.07.39.05.1.13.08.3-.05.4l-.34-.45ZM17,32.43c-.12.09-.3.05-.38-.08-.09-.13-.05-.3.07-.39l.31.47Zm.16-.77l.31.47-.47.3-.31-.47.47-.3Zm0,0c.13-.08.31-.05.39.08.09.13.05.3-.08.39l-.31-.47Zm2.69-.96c-.13.08-.3.03-.38-.1-.08-.14-.03-.31.1-.39l.28.49Zm.21-.76l.28.49-.49.27-.28-.49.49-.27Zm0,0c.13-.08.3-.03.38.1.08.14.03.31-.1.39l-.28-.49Zm2.75-.79c-.14.07-.31.01-.38-.13s-.01-.31.12-.38l.26.51Zm.25-.75l.25.5-.5.25-.26-.51.51-.24Zm0,0c.13-.07.3-.01.37.12.07.14.02.31-.12.38l-.25-.5Zm2.78-.64c-.14.06-.31,0-.37-.14-.06-.15.01-.31.15-.37l.22.51Zm.29-.73l.23.52-.52.21-.22-.51.51-.22Zm0,0c.14-.06.31,0,.37.15.06.14,0,.3-.14.37l-.23-.52Zm2.81-.49c-.14.05-.3-.02-.36-.17-.05-.14.02-.31.17-.36l.19.53Zm.33-.72l.2.53-.53.19-.19-.53.52-.19Zm0,0c.15-.05.31.02.36.17.06.14-.02.3-.16.36l-.2-.53Zm2.83-.36c-.14.05-.3-.03-.35-.18-.04-.15.04-.31.18-.35l.17.53Zm.37-.69l.17.53-.54.16-.17-.53.54-.16Zm0,0c.15-.05.3.03.35.18s-.04.31-.18.35l-.17-.53Zm2.85-.23c-.15.04-.31-.04-.35-.19s.04-.31.19-.35l.16.54Zm.39-.68l.14.54-.35.09-.18.05-.16-.54.2-.06.35-.08Zm0,0c.15-.04.3.05.34.2s-.05.3-.2.34l-.14-.54Z" clip-rule="evenodd" fill="#ed1758"/></g></g><g id="evXs8MEAtna39_to" transform="translate(44.569996,51.069998)"><g id="evXs8MEAtna39" transform="translate(-44.569996,-51.069998)" clip-rule="evenodd"><path d="M40.32,32.86c19.96-4.65,38.03-.27,40.38,9.79c2.34,10.06-11.93,21.98-31.89,26.63-19.95,4.65-38.03.27-40.37-9.79s11.93-21.98,31.88-26.63Z" clip-rule="evenodd" fill="none" stroke="#999" stroke-width="0.06" stroke-miterlimit="22.9256"/></g></g><g clip-rule="evenodd"><polygon points="17.76,19.15 61.27,19.15 61.27,40.36 17.76,40.36" clip-rule="evenodd" fill="none" fill-rule="evenodd" stroke="#fff" stroke-width="0.16" stroke-miterlimit="22.9256"/><polygon points="22.7,35.22 58.04,35.22 58.04,36.13 22.7,36.13" clip-rule="evenodd" fill="none" fill-rule="evenodd" stroke="#fff" stroke-width="0.16" stroke-miterlimit="22.9256"/><polygon points="16.58,18.17 62.45,18.17 62.45,41.34 16.58,41.34" clip-rule="evenodd" fill="none" fill-rule="evenodd" stroke="#fff" stroke-width="0.16" stroke-miterlimit="22.9256"/><polygon points="19.3,41.35 20.56,41.35 20.56,48.23 19.3,48.23" clip-rule="evenodd" fill="none" fill-rule="evenodd" stroke="#fff" stroke-width="0.16" stroke-miterlimit="22.9256"/><polygon points="58.28,41.35 59.54,41.35 59.54,48.23 58.28,48.23" clip-rule="evenodd" fill="none" fill-rule="evenodd" stroke="#fff" stroke-width="0.16" stroke-miterlimit="22.9256"/><polygon points="22.7,23.63 34.04,23.63 34.04,25.92 22.7,25.92" clip-rule="evenodd" fill="none" fill-rule="evenodd" stroke="#fff" stroke-width="0.16" stroke-miterlimit="22.9256"/><path d="M39.79,24.03h.45v2.14h-.45v-.43c-.22.32-.5.48-.82.48-.28,0-.53-.11-.73-.33s-.3-.49-.3-.81c0-.3.1-.56.31-.78.2-.23.44-.34.71-.34.16,0,.32.05.48.14.15.09.26.21.35.36v-.43Zm.06,1.07c0-.2-.07-.36-.21-.5s-.31-.21-.51-.21c-.19,0-.36.07-.5.2-.14.14-.21.31-.21.49c0,.21.07.38.2.52.14.14.31.21.51.21s.37-.07.51-.21.21-.31.21-.5Zm2.53-1.16l.6,1.41.63-1.32h.39l-1.05,2.19-.58-1.37-.56,1.36-1.05-2.18h.39l.64,1.32.59-1.41Zm4.1,1.24h-1.82c.04.22.13.38.27.48s.29.15.46.15c.26,0,.47-.1.64-.31l.33.25c-.24.31-.58.47-.99.47-.32,0-.58-.11-.8-.32-.21-.22-.32-.49-.32-.82c0-.3.11-.56.33-.78.21-.23.48-.34.79-.34s.57.11.79.34.33.52.32.88Zm-1.77-.36h1.31c-.15-.3-.36-.44-.65-.44-.31,0-.53.14-.66.44Zm3.59-.54l-.31.26c-.07-.05-.14-.1-.2-.13-.06-.02-.12-.04-.2-.04-.19,0-.28.07-.28.2c0,.1.12.19.35.29.23.09.4.19.5.3s.16.24.16.39c0,.18-.08.34-.22.47-.15.14-.32.2-.52.2-.3,0-.55-.14-.74-.41l.35-.18c.12.12.25.18.39.18.09,0,.17-.02.24-.07s.11-.11.11-.18c0-.12-.12-.23-.37-.32-.25-.1-.42-.2-.51-.29-.09-.1-.14-.22-.14-.37c0-.17.07-.32.2-.44s.3-.18.51-.18c.2,0,.42.11.68.32Zm.35.81c0-.3.12-.56.35-.79.23-.22.49-.34.79-.34.31,0,.58.11.81.34.23.22.34.49.34.79s-.11.56-.33.79c-.23.23-.49.35-.79.35-.31,0-.59-.11-.82-.34s-.35-.5-.35-.8Zm1.86,0c0-.19-.07-.34-.21-.48-.14-.13-.3-.2-.49-.2-.2,0-.37.07-.51.2-.14.14-.21.3-.21.49c0,.18.07.34.22.48.14.14.31.2.5.2.18,0,.35-.07.49-.21s.21-.3.21-.48Zm.87,1.08v-2.14h.46v.32c.1-.13.2-.23.3-.29.09-.07.2-.1.33-.1.16,0,.28.04.37.11.1.07.17.18.24.34.11-.16.22-.27.32-.34.11-.07.23-.11.37-.11.17,0,.32.07.44.19.12.13.18.28.18.46v1.56h-.45v-1.45c0-.24-.11-.36-.35-.36-.13,0-.24.06-.34.18-.09.12-.13.28-.13.45v1.18h-.46v-1.39c0-.28-.11-.42-.34-.42-.13,0-.25.06-.34.17-.1.12-.14.26-.14.43v1.21h-.46Zm5.72-.99h-1.82c.04.22.13.38.27.48s.29.15.46.15c.25,0,.47-.1.64-.31l.33.25c-.25.31-.58.47-.99.47-.32,0-.59-.11-.8-.32-.22-.22-.32-.49-.32-.82c0-.3.11-.56.32-.78.22-.23.48-.34.8-.34.31,0,.57.11.79.34s.33.52.32.88Zm-1.78-.36h1.32c-.15-.3-.37-.44-.65-.44-.31,0-.53.14-.67.44Z" clip-rule="evenodd" fill="#fff"/><path d="M23.23,27.6h1.83c.76,0,1.28.16,1.56.48s.42.69.42,1.12c0,.27-.05.5-.15.69s-.27.37-.49.57c.43.15.74.37.92.66s.27.6.27.93c0,.58-.2,1.02-.59,1.35-.4.32-.95.48-1.67.48h-2.1v-6.28Zm1.35,1.05v1.38h.31c.23,0,.42-.07.58-.22.15-.15.23-.33.23-.54c0-.17-.07-.32-.23-.44-.15-.12-.34-.18-.57-.18h-.32Zm0,2.45v1.73h.49c.74,0,1.11-.27,1.11-.82c0-.29-.09-.52-.27-.68-.18-.15-.44-.23-.78-.23h-.55Zm3.83-3.5h2.07c.63,0,1.13.17,1.5.5.36.33.54.78.54,1.34c0,.32-.08.66-.25,1-.17.35-.48.62-.93.82l1.76,2.62h-1.55l-1.63-2.43h-.16v2.43h-1.35v-6.28Zm1.35,1.12v1.63h.3c.72,0,1.07-.29,1.07-.86c0-.24-.09-.43-.28-.56-.18-.14-.44-.21-.77-.21h-.32Zm6.55-1.12h1.06l2.55,6.28h-1.36l-.5-1.24h-2.41l-.49,1.24h-1.35l2.5-6.28Zm.54,2.06l-.74,1.85h1.49l-.75-1.85Zm8.17-2.06h1.32v6.28h-1.3l-2.88-4.07v4.07h-1.36v-6.28h1.34l2.88,4.03v-4.03Zm2.56,0h2.14c.92,0,1.65.29,2.21.87.56.57.84,1.33.84,2.28c0,.94-.29,1.7-.87,2.27-.57.57-1.34.86-2.29.86h-2.03v-6.28Zm1.35,1.19v3.87h.54c.55,0,1.01-.15,1.37-.45s.54-.81.54-1.52c0-.41-.09-.77-.26-1.09-.18-.32-.43-.53-.75-.64-.33-.12-.64-.17-.94-.17h-.5Zm8.42-.62l-.85.92c-.44-.26-.76-.39-.96-.39-.15,0-.28.06-.39.17s-.16.24-.16.4c0,.31.28.58.84.8.41.18.72.34.93.48.22.14.39.34.54.59.14.25.21.53.21.82c0,.54-.22,1.01-.65,1.41-.44.4-.95.59-1.55.59-.65,0-1.29-.3-1.93-.92l.89-1.03c.4.41.78.61,1.13.61.16,0,.32-.07.47-.21s.22-.29.22-.45c0-.33-.34-.62-1.04-.87-.39-.15-.67-.28-.84-.41-.17-.12-.31-.31-.42-.55-.12-.24-.17-.49-.17-.74c0-.56.18-1.01.54-1.36.37-.34.84-.52,1.43-.52.7,0,1.28.22,1.76.66Z" clip-rule="evenodd" fill="#fff"/></g></g></svg>